<mxfile host="app.diagrams.net" modified="2023-06-08T02:33:48.568Z" agent="Mozilla/5.0 (Macintosh; Intel Mac OS X 10_15_7) AppleWebKit/537.36 (KHTML, like Gecko) Chrome/113.0.0.0 Safari/537.36" etag="Xhea2DD6-ZTJyv4YPclb" version="21.3.5" type="github">
  <diagram name="第 1 页" id="Yv2DWsJKGUjuq9HnccB8">
    <mxGraphModel dx="954" dy="590" grid="1" gridSize="10" guides="1" tooltips="1" connect="1" arrows="1" fold="1" page="1" pageScale="1" pageWidth="827" pageHeight="1169" math="0" shadow="0">
      <root>
        <mxCell id="0" />
        <mxCell id="1" parent="0" />
        <mxCell id="4FuAAJ61GYCt7lyNMh1s-7" value="" style="edgeStyle=orthogonalEdgeStyle;rounded=0;orthogonalLoop=1;jettySize=auto;html=1;entryX=0.5;entryY=0;entryDx=0;entryDy=0;" parent="1" source="4FuAAJ61GYCt7lyNMh1s-1" target="4FuAAJ61GYCt7lyNMh1s-2" edge="1">
          <mxGeometry relative="1" as="geometry" />
        </mxCell>
        <mxCell id="4FuAAJ61GYCt7lyNMh1s-1" value="封禁外链" style="rounded=1;whiteSpace=wrap;html=1;fontSize=16;" parent="1" vertex="1">
          <mxGeometry x="260" y="150" width="120" height="40" as="geometry" />
        </mxCell>
        <mxCell id="4FuAAJ61GYCt7lyNMh1s-8" value="" style="edgeStyle=orthogonalEdgeStyle;rounded=0;orthogonalLoop=1;jettySize=auto;html=1;" parent="1" source="4FuAAJ61GYCt7lyNMh1s-2" target="4FuAAJ61GYCt7lyNMh1s-4" edge="1">
          <mxGeometry relative="1" as="geometry" />
        </mxCell>
        <mxCell id="4FuAAJ61GYCt7lyNMh1s-2" value="外链中加黑文件" style="rounded=1;whiteSpace=wrap;html=1;fontSize=16;" parent="1" vertex="1">
          <mxGeometry x="260" y="220" width="120" height="40" as="geometry" />
        </mxCell>
        <mxCell id="4FuAAJ61GYCt7lyNMh1s-10" value="" style="edgeStyle=orthogonalEdgeStyle;rounded=0;orthogonalLoop=1;jettySize=auto;html=1;" parent="1" source="4FuAAJ61GYCt7lyNMh1s-3" target="4FuAAJ61GYCt7lyNMh1s-5" edge="1">
          <mxGeometry relative="1" as="geometry" />
        </mxCell>
        <mxCell id="4FuAAJ61GYCt7lyNMh1s-3" value="同一文件夹下其余文件" style="rounded=1;whiteSpace=wrap;html=1;fontSize=16;" parent="1" vertex="1">
          <mxGeometry x="150" y="370" width="140" height="60" as="geometry" />
        </mxCell>
        <mxCell id="4FuAAJ61GYCt7lyNMh1s-9" value="" style="edgeStyle=orthogonalEdgeStyle;rounded=0;orthogonalLoop=1;jettySize=auto;html=1;" parent="1" source="4FuAAJ61GYCt7lyNMh1s-4" target="4FuAAJ61GYCt7lyNMh1s-3" edge="1">
          <mxGeometry relative="1" as="geometry" />
        </mxCell>
        <mxCell id="fXgBxiSn7Ebk1GxIluip-2" style="edgeStyle=orthogonalEdgeStyle;rounded=0;orthogonalLoop=1;jettySize=auto;html=1;" edge="1" parent="1" source="4FuAAJ61GYCt7lyNMh1s-4" target="fXgBxiSn7Ebk1GxIluip-1">
          <mxGeometry relative="1" as="geometry" />
        </mxCell>
        <mxCell id="4FuAAJ61GYCt7lyNMh1s-4" value="文件溯源" style="rounded=1;whiteSpace=wrap;html=1;fontSize=16;" parent="1" vertex="1">
          <mxGeometry x="260" y="290" width="120" height="30" as="geometry" />
        </mxCell>
        <mxCell id="4FuAAJ61GYCt7lyNMh1s-11" value="" style="edgeStyle=orthogonalEdgeStyle;rounded=0;orthogonalLoop=1;jettySize=auto;html=1;" parent="1" source="4FuAAJ61GYCt7lyNMh1s-5" target="4FuAAJ61GYCt7lyNMh1s-6" edge="1">
          <mxGeometry relative="1" as="geometry" />
        </mxCell>
        <mxCell id="4FuAAJ61GYCt7lyNMh1s-5" value="是否被加黑" style="rounded=1;whiteSpace=wrap;html=1;fontSize=16;" parent="1" vertex="1">
          <mxGeometry x="160" y="470" width="120" height="30" as="geometry" />
        </mxCell>
        <mxCell id="fXgBxiSn7Ebk1GxIluip-5" value="" style="edgeStyle=orthogonalEdgeStyle;rounded=0;orthogonalLoop=1;jettySize=auto;html=1;" edge="1" parent="1" source="4FuAAJ61GYCt7lyNMh1s-6" target="fXgBxiSn7Ebk1GxIluip-4">
          <mxGeometry relative="1" as="geometry" />
        </mxCell>
        <mxCell id="4FuAAJ61GYCt7lyNMh1s-6" value="文件名策略" style="rounded=1;whiteSpace=wrap;html=1;fontSize=16;" parent="1" vertex="1">
          <mxGeometry x="270" y="555" width="120" height="30" as="geometry" />
        </mxCell>
        <mxCell id="fXgBxiSn7Ebk1GxIluip-3" style="edgeStyle=orthogonalEdgeStyle;rounded=0;orthogonalLoop=1;jettySize=auto;html=1;entryX=0.5;entryY=0;entryDx=0;entryDy=0;" edge="1" parent="1" source="fXgBxiSn7Ebk1GxIluip-1" target="4FuAAJ61GYCt7lyNMh1s-6">
          <mxGeometry relative="1" as="geometry">
            <Array as="points">
              <mxPoint x="414" y="530" />
              <mxPoint x="330" y="530" />
            </Array>
          </mxGeometry>
        </mxCell>
        <mxCell id="fXgBxiSn7Ebk1GxIluip-1" value="同一外链下其余加黑文件" style="rounded=1;whiteSpace=wrap;html=1;fontSize=16;" vertex="1" parent="1">
          <mxGeometry x="344" y="370" width="140" height="60" as="geometry" />
        </mxCell>
        <mxCell id="fXgBxiSn7Ebk1GxIluip-7" value="" style="edgeStyle=orthogonalEdgeStyle;rounded=0;orthogonalLoop=1;jettySize=auto;html=1;" edge="1" parent="1" source="fXgBxiSn7Ebk1GxIluip-4" target="fXgBxiSn7Ebk1GxIluip-6">
          <mxGeometry relative="1" as="geometry" />
        </mxCell>
        <mxCell id="fXgBxiSn7Ebk1GxIluip-4" value="类型区分" style="whiteSpace=wrap;html=1;fontSize=16;rounded=1;" vertex="1" parent="1">
          <mxGeometry x="270" y="610" width="120" height="30" as="geometry" />
        </mxCell>
        <mxCell id="fXgBxiSn7Ebk1GxIluip-6" value="结果预测" style="whiteSpace=wrap;html=1;fontSize=16;rounded=1;" vertex="1" parent="1">
          <mxGeometry x="270" y="670" width="120" height="60" as="geometry" />
        </mxCell>
      </root>
    </mxGraphModel>
  </diagram>
</mxfile>
